<?xml version="1.0" standalone="no"?>
<!DOCTYPE svg PUBLIC "-//W3C//DTD SVG 20010904//EN"
 "http://www.w3.org/TR/2001/REC-SVG-20010904/DTD/svg10.dtd">
<svg version="1.0" xmlns="http://www.w3.org/2000/svg"
 width="512.000000pt" height="512.000000pt" viewBox="0 0 512.000000 512.000000"
 preserveAspectRatio="xMidYMid meet">

<g transform="translate(0.000000,512.000000) scale(0.100000,-0.100000)"
fill="#000000" stroke="none">
<path d="M913 4685 c-218 -39 -424 -147 -582 -304 -371 -368 -436 -932 -159
-1381 31 -51 93 -126 161 -197 96 -99 114 -113 143 -113 23 0 38 7 53 26 38
48 29 67 -83 184 -149 156 -227 291 -273 476 -26 106 -24 332 5 447 83 331
334 591 669 694 81 25 101 27 263 27 162 0 182 -2 263 -27 203 -63 299 -129
568 -394 114 -112 214 -203 223 -203 34 0 64 26 271 229 116 114 236 224 268
245 77 50 187 100 278 126 95 28 297 38 407 20 107 -17 246 -69 346 -129 47
-28 92 -51 100 -51 8 0 27 11 42 23 40 35 38 82 -7 119 -57 48 -247 136 -354
165 -91 24 -116 27 -285 27 -203 0 -256 -10 -417 -74 -161 -65 -260 -138 -481
-354 l-162 -160 -173 171 c-226 223 -339 302 -528 366 -158 55 -390 72 -556
42z"/>
<path d="M4036 4237 c-36 -36 -33 -63 19 -150 54 -89 101 -213 121 -315 19
-98 18 -274 -2 -370 -33 -163 -119 -334 -224 -445 -56 -60 -63 -65 -114 -71
-119 -14 -303 -100 -444 -208 -249 -191 -531 -547 -756 -958 -32 -58 -59 -106
-61 -108 -1 -2 -132 22 -291 53 -272 53 -293 55 -353 45 -65 -11 -122 -36
-173 -73 l-29 -21 -482 482 c-456 456 -484 482 -518 482 -44 0 -72 -28 -72
-71 0 -27 32 -63 251 -282 139 -139 252 -255 252 -258 0 -4 -22 -9 -49 -11
-145 -14 -275 -153 -283 -303 l-3 -45 -67 0 c-98 0 -169 -30 -239 -99 -96 -96
-125 -230 -78 -355 21 -57 89 -142 132 -165 23 -12 25 -19 29 -100 4 -100 26
-156 88 -220 73 -75 101 -84 570 -171 l432 -81 861 3 862 3 62 23 c34 13 89
40 122 60 33 20 272 224 531 452 345 305 488 424 537 450 l66 35 174 3 c172 4
173 4 193 29 25 32 25 64 1 94 -19 24 -22 24 -198 24 -159 0 -185 -2 -243 -23
-36 -12 -84 -34 -106 -50 -23 -15 -254 -214 -514 -442 -260 -228 -492 -427
-516 -442 -24 -15 -70 -37 -103 -48 -59 -19 -83 -20 -889 -20 l-828 0 -405 75
c-222 41 -418 80 -436 86 -37 12 -100 77 -109 114 -11 45 1 134 23 163 27 37
78 70 121 78 25 5 150 -14 421 -65 l386 -72 175 1 176 0 309 -91 c279 -83 318
-92 390 -92 57 1 96 7 135 22 33 12 249 153 535 348 l480 328 0 44 c0 36 -5
47 -27 64 -17 13 -34 17 -50 13 -12 -3 -230 -148 -483 -321 -253 -173 -478
-322 -500 -331 -78 -32 -124 -24 -541 99 -216 63 -405 122 -421 131 -64 32
-113 114 -113 186 0 90 69 180 157 206 54 16 54 16 366 -45 172 -34 321 -61
333 -61 29 0 56 33 98 118 91 181 272 463 413 641 95 119 265 289 358 359 81
60 192 120 285 154 l65 23 617 3 617 3 21 26 c33 42 25 85 -21 108 -23 13
-105 15 -499 15 -258 0 -470 2 -470 4 0 2 20 33 45 70 86 128 151 294 175 449
20 120 8 339 -24 457 -27 97 -117 293 -158 342 -34 41 -80 47 -112 15z m-2734
-2462 c90 -34 94 -37 215 -157 68 -67 123 -128 123 -135 0 -18 -75 -17 -172 2
-88 17 -118 10 -137 -32 -15 -34 -14 -47 9 -76 16 -20 36 -28 107 -41 49 -9
107 -16 130 -16 l42 0 11 -54 c6 -30 26 -79 45 -110 31 -52 32 -56 12 -51 -12
3 -182 35 -377 71 -383 71 -426 74 -513 36 -25 -11 -65 -39 -90 -61 l-44 -41
-27 21 c-62 49 -85 159 -47 229 10 19 34 48 54 64 51 41 104 43 270 12 146
-27 176 -25 196 13 29 54 -4 105 -77 117 -33 5 -46 13 -53 30 -20 55 23 152
86 190 59 35 123 32 237 -11z"/>
<path d="M2322 3784 c-258 -128 -165 -519 123 -517 182 2 311 173 261 347 -47
160 -236 244 -384 170z m197 -149 c58 -50 62 -132 8 -183 -103 -97 -257 22
-192 148 32 62 129 81 184 35z"/>
<path d="M1727 3715 c-133 -50 -208 -208 -163 -343 52 -155 232 -230 379 -158
99 48 151 132 151 241 0 112 -56 204 -152 251 -48 24 -164 28 -215 9z m178
-167 c69 -63 53 -162 -31 -200 -109 -48 -210 57 -159 166 20 42 60 65 113 66
34 0 49 -6 77 -32z"/>
<path d="M2839 3381 c-111 -34 -199 -151 -199 -266 0 -73 34 -148 92 -199 115
-104 269 -100 375 9 107 110 110 265 6 376 -69 74 -183 107 -274 80z m132
-156 c37 -20 69 -70 69 -110 0 -62 -63 -125 -125 -125 -61 0 -125 63 -125 123
0 63 62 127 123 127 15 0 41 -7 58 -15z"/>
<path d="M1365 3176 c-105 -49 -159 -134 -159 -251 0 -109 52 -193 151 -241
189 -93 409 57 390 267 -9 106 -81 199 -180 236 -55 20 -146 16 -202 -11z
m175 -142 c85 -51 76 -182 -16 -220 -97 -41 -204 61 -164 156 30 72 115 102
180 64z"/>
<path d="M2127 3149 c-85 -20 -180 -90 -229 -170 -25 -40 -48 -128 -48 -183 0
-58 -21 -110 -74 -183 -49 -69 -67 -125 -67 -208 0 -137 78 -262 199 -322 51
-25 68 -28 152 -28 86 1 102 4 170 34 72 32 78 33 150 25 41 -4 98 -7 126 -6
122 3 238 82 296 200 29 59 33 76 33 152 0 71 -4 94 -26 141 -32 68 -86 129
-142 163 -61 36 -94 74 -121 143 -50 127 -122 198 -238 235 -64 19 -119 22
-181 7z m136 -150 c61 -16 105 -64 148 -158 44 -94 85 -143 170 -202 68 -46
98 -90 106 -157 7 -66 -11 -116 -61 -167 -54 -54 -110 -69 -192 -54 -86 16
-177 6 -261 -30 -116 -50 -205 -35 -271 44 -68 83 -61 184 19 285 45 56 68
121 78 218 10 99 24 132 69 175 52 50 122 66 195 46z"/>
</g>
</svg>
