<?xml version="1.0" standalone="no"?>
<!DOCTYPE svg PUBLIC "-//W3C//DTD SVG 20010904//EN"
 "http://www.w3.org/TR/2001/REC-SVG-20010904/DTD/svg10.dtd">
<svg version="1.0" xmlns="http://www.w3.org/2000/svg"
 width="512.000000pt" height="512.000000pt" viewBox="0 0 512.000000 512.000000"
 preserveAspectRatio="xMidYMid meet">

<g transform="translate(0.000000,512.000000) scale(0.100000,-0.100000)"
fill="#000000" stroke="none">
<path d="M1709 5097 c-57 -38 -119 -210 -159 -442 -16 -90 -23 -193 -30 -408
-5 -159 -11 -291 -14 -294 -3 -3 -37 -1 -77 5 -39 6 -78 8 -87 5 -32 -11 -52
-36 -52 -65 0 -63 28 -80 157 -94 l61 -6 20 -82 c10 -44 22 -88 26 -97 6 -14
-5 -18 -81 -28 -159 -21 -183 -34 -183 -99 0 -28 20 -54 50 -64 8 -3 76 3 150
13 l135 18 15 -22 c8 -12 40 -53 70 -91 l56 -70 -33 -61 c-17 -33 -43 -98 -56
-145 l-25 -85 -93 -6 c-52 -3 -113 -13 -137 -22 -74 -28 -159 -97 -205 -166
-16 -24 -16 -24 -31 30 -43 148 -46 307 -10 544 32 211 42 511 25 677 -17 156
-48 295 -77 345 -26 45 -86 86 -142 98 -47 10 -123 -11 -166 -47 -75 -61 -91
-136 -59 -265 13 -52 17 -112 17 -253 0 -185 -7 -267 -47 -500 -16 -97 -21
-168 -21 -320 -1 -209 10 -286 59 -442 14 -42 25 -80 25 -83 0 -3 -69 -5 -152
-5 -116 -1 -158 -4 -172 -15 -18 -14 -466 -1161 -466 -1195 0 -9 9 -29 21 -44
25 -32 77 -36 104 -7 9 11 80 183 157 383 77 200 144 367 149 372 5 6 9 -273
9 -732 0 -729 0 -742 20 -762 40 -40 103 -21 120 38 6 24 10 342 10 925 l0
887 283 0 282 0 19 -47 c26 -62 78 -118 140 -151 48 -25 61 -27 208 -30 182
-4 238 7 311 63 32 24 55 55 78 100 l32 65 617 0 617 0 32 -65 c23 -45 46 -76
78 -100 73 -56 129 -67 311 -63 147 3 160 5 208 30 62 33 114 89 140 151 l19
47 283 0 282 0 0 -1135 0 -1135 -1969 0 -1968 0 -5 75 c-6 90 -23 115 -78 115
-63 0 -70 -17 -70 -168 0 -122 2 -133 22 -152 22 -20 22 -20 2098 -20 2076 0
2076 0 2098 20 12 12 23 22 24 23 2 1 5 456 8 1012 l5 1010 140 -364 c76 -200
148 -374 158 -387 26 -34 79 -33 106 2 12 15 21 35 21 44 0 34 -448 1181 -466
1195 -15 12 -82 14 -350 15 l-332 0 -7 47 c-23 152 -122 279 -263 337 -29 12
-83 22 -141 25 l-93 6 -25 85 c-13 47 -39 112 -56 145 l-33 61 56 70 c30 38
62 79 70 91 l15 22 135 -18 c74 -10 142 -16 150 -13 30 10 50 36 50 64 0 65
-24 78 -183 99 -76 10 -87 14 -81 28 4 9 16 53 26 97 l20 82 61 6 c129 14 157
31 157 94 0 46 -32 68 -94 63 -28 -1 -67 -4 -86 -5 l-35 -1 -6 60 c-4 33 -8
141 -9 240 -2 225 -9 282 -40 307 -12 10 -33 18 -47 18 -32 0 -73 -42 -73 -75
0 -24 -8 -19 -75 53 -41 43 -99 96 -130 117 -30 21 -55 41 -55 44 0 13 148
216 156 214 5 -1 19 -33 32 -72 28 -83 58 -108 110 -90 48 17 58 48 38 120
-54 194 -124 259 -230 215 -25 -10 -57 -49 -136 -162 -56 -82 -104 -150 -105
-151 -1 -2 -38 10 -82 27 -127 46 -239 64 -403 64 -164 0 -276 -18 -403 -64
-44 -17 -81 -29 -82 -27 -1 1 -49 69 -105 151 -79 113 -111 152 -136 162 -48
20 -86 17 -125 -9z m160 -271 c39 -58 71 -106 71 -109 0 -2 -25 -21 -55 -42
-31 -21 -89 -74 -130 -117 -87 -93 -86 -94 -56 84 17 95 61 263 78 291 8 13
19 0 92 -107z m796 -96 c247 -26 456 -125 603 -285 102 -112 176 -280 191
-439 8 -88 28 -77 -174 -102 -118 -15 -144 -22 -162 -41 -30 -29 -29 -68 2
-98 29 -30 32 -30 191 -8 68 9 127 13 131 9 4 -3 -3 -38 -16 -77 -21 -67 -24
-70 -49 -65 -72 15 -205 27 -227 22 -60 -15 -70 -102 -16 -130 15 -8 56 -18
92 -22 96 -10 97 -13 46 -73 -302 -354 -816 -438 -1201 -197 -88 56 -173 127
-232 196 -52 61 -51 64 45 74 36 4 77 14 92 22 54 28 44 115 -16 130 -22 5
-155 -7 -227 -22 -25 -5 -28 -2 -49 65 -13 39 -20 74 -16 77 4 4 63 0 131 -9
159 -22 162 -22 191 8 30 29 32 64 7 96 -17 20 -39 25 -181 45 -89 12 -164 24
-165 26 -8 9 16 160 35 222 104 346 429 568 854 584 17 1 71 -3 120 -8z
m-1681 -412 c26 -25 43 -98 67 -283 18 -143 6 -456 -26 -665 -23 -150 -26
-195 -22 -315 8 -189 32 -293 114 -472 4 -10 -15 -13 -76 -13 -94 0 -91 -3
-135 140 -59 194 -70 447 -31 680 54 318 67 572 40 740 -30 179 -30 176 -4
194 31 21 43 20 73 -6z m919 -1217 c10 -38 37 -107 60 -153 79 -156 182 -266
320 -339 l72 -38 -207 -1 -208 0 0 88 c0 120 -19 172 -87 240 l-54 54 16 57
c21 73 56 161 64 161 4 0 15 -31 24 -69z m1365 17 c10 -24 26 -72 36 -106 l18
-64 -41 -35 c-23 -19 -53 -56 -68 -81 -25 -42 -28 -59 -32 -154 l-3 -108 -202
0 -201 0 58 30 c111 56 204 138 276 243 43 63 105 198 122 265 7 28 14 52 15
52 2 0 11 -19 22 -42z m-951 -154 c218 -55 421 -39 642 51 47 19 87 33 89 30
3 -2 -15 -37 -38 -77 -60 -102 -150 -187 -246 -234 -77 -38 -80 -39 -193 -39
-98 0 -125 4 -173 23 -117 47 -229 156 -294 284 l-24 47 72 -31 c40 -16 114
-41 165 -54z m-590 -154 c55 -33 63 -61 63 -229 0 -147 0 -150 -26 -181 -45
-53 -69 -60 -216 -60 -147 0 -184 10 -222 63 -18 25 -21 43 -21 130 0 91 3
107 27 153 30 57 73 98 133 125 59 27 218 27 262 -1z m1928 1 c60 -27 103 -68
133 -125 24 -46 27 -62 27 -153 0 -87 -3 -105 -21 -130 -38 -53 -75 -63 -222
-63 -147 0 -171 7 -216 60 -26 31 -26 34 -26 181 0 168 8 196 63 229 44 28
203 28 262 1z"/>
<path d="M2298 4311 c-57 -49 -74 -54 -158 -47 -76 7 -78 7 -99 -20 -57 -72 7
-134 139 -134 79 0 141 24 200 77 59 53 66 88 25 128 -32 33 -67 31 -107 -4z"/>
<path d="M2715 4315 c-41 -40 -34 -75 25 -128 59 -53 121 -77 200 -77 132 0
196 62 139 134 -21 27 -23 27 -99 20 -84 -7 -101 -2 -158 47 -40 35 -75 37
-107 4z"/>
<path d="M2457 4060 c-86 -22 -167 -83 -193 -147 -21 -49 -18 -137 6 -184 28
-55 91 -113 156 -145 53 -26 54 -27 54 -69 0 -35 -4 -44 -25 -53 -35 -16 -94
-14 -125 3 -62 36 -124 3 -118 -63 3 -42 42 -74 112 -93 53 -14 151 -6 198 16
36 18 39 18 80 -1 66 -30 189 -27 248 6 51 29 69 65 54 107 -13 37 -54 51 -97
34 -48 -20 -104 -25 -137 -11 -27 11 -30 17 -30 56 0 42 1 44 47 64 71 31 129
84 158 145 23 47 27 65 23 120 -5 87 -41 137 -131 184 -57 29 -76 34 -153 37
-49 2 -106 -1 -127 -6z m190 -155 c54 -23 73 -44 73 -80 0 -52 -93 -125 -160
-125 -39 0 -85 23 -127 63 -57 53 -38 117 42 145 45 16 131 14 172 -3z"/>
<path d="M2465 2037 c-91 -42 -139 -118 -139 -222 0 -81 23 -135 76 -180 47
-40 94 -57 158 -57 100 0 181 53 220 144 44 103 7 225 -89 293 -37 26 -52 30
-119 33 -49 1 -88 -3 -107 -11z m152 -152 c51 -36 37 -126 -23 -151 -32 -14
-39 -13 -72 3 -57 29 -68 97 -22 143 24 24 86 27 117 5z"/>
<path d="M1960 1844 c-128 -55 -179 -204 -114 -331 41 -80 100 -116 198 -121
63 -3 77 0 126 25 74 39 113 100 118 188 2 35 -1 80 -8 100 -16 50 -75 114
-125 136 -49 23 -146 24 -195 3z m154 -155 c21 -16 26 -29 26 -63 0 -55 -32
-88 -85 -88 -77 0 -117 92 -64 148 29 31 86 32 123 3z"/>
<path d="M2965 1841 c-92 -42 -140 -127 -133 -235 6 -90 44 -150 121 -190 165
-84 350 26 350 209 0 96 -58 183 -145 219 -51 22 -143 20 -193 -3z m162 -153
c33 -31 32 -96 -1 -127 -56 -53 -146 -15 -146 61 0 78 91 119 147 66z"/>
<path d="M2425 1464 c-266 -57 -452 -293 -433 -553 12 -165 107 -261 294 -296
103 -20 445 -20 548 -1 188 36 283 133 294 302 6 88 -24 212 -69 292 -117 204
-379 309 -634 256z m264 -153 c168 -52 277 -181 289 -341 9 -126 -40 -184
-177 -210 -70 -13 -412 -13 -482 0 -137 26 -186 84 -177 210 6 84 42 163 102
228 49 53 139 106 202 121 68 16 178 12 243 -8z"/>
</g>
</svg>
