<?xml version="1.0" standalone="no"?>
<!DOCTYPE svg PUBLIC "-//W3C//DTD SVG 20010904//EN"
 "http://www.w3.org/TR/2001/REC-SVG-20010904/DTD/svg10.dtd">
<svg version="1.0" xmlns="http://www.w3.org/2000/svg"
 width="512.000000pt" height="512.000000pt" viewBox="0 0 512.000000 512.000000"
 preserveAspectRatio="xMidYMid meet">

<g transform="translate(0.000000,512.000000) scale(0.100000,-0.100000)"
fill="#000000" stroke="none">
<path d="M2494 4901 c-85 -21 -170 -86 -280 -213 -37 -44 -44 -48 -84 -48 -31
0 -56 8 -89 29 -89 57 -147 75 -251 75 -84 1 -101 -2 -145 -26 -93 -48 -164
-145 -200 -273 -38 -130 -66 -151 -187 -135 -88 11 -201 -2 -262 -29 -142 -63
-211 -214 -187 -410 8 -65 8 -89 -3 -114 -18 -45 -33 -55 -119 -76 -136 -35
-231 -98 -284 -189 -21 -36 -28 -62 -31 -126 -5 -93 15 -166 74 -274 45 -82
47 -141 7 -172 -16 -11 -51 -38 -80 -60 -99 -75 -156 -188 -156 -307 0 -60 5
-82 31 -136 30 -61 68 -102 191 -208 56 -48 56 -89 2 -191 -71 -131 -89 -251
-55 -351 35 -102 149 -189 299 -226 83 -21 99 -31 121 -73 12 -23 13 -43 4
-113 -28 -229 53 -378 236 -431 47 -13 83 -16 181 -11 115 5 125 3 156 -17 22
-15 36 -35 45 -66 60 -204 139 -308 265 -345 99 -29 201 -12 327 56 115 63
149 57 226 -41 93 -118 205 -184 314 -183 125 0 211 55 356 226 43 51 87 51
191 -3 188 -95 324 -92 436 10 63 57 107 136 136 240 13 45 31 84 46 99 24 24
28 25 187 25 157 1 165 2 220 29 139 68 207 225 180 416 -10 69 -9 87 2 110
21 40 33 47 135 81 108 35 165 66 219 121 55 55 75 102 80 185 5 87 -14 158
-69 264 -26 50 -39 89 -39 115 0 35 6 44 52 85 192 166 248 282 203 422 -21
70 -99 173 -170 228 -31 24 -63 53 -71 64 -25 36 -17 89 25 168 22 40 46 97
55 127 18 62 21 159 6 210 -25 87 -118 170 -243 216 -40 15 -92 34 -117 44
-29 11 -50 27 -63 48 -17 29 -17 39 -7 110 46 304 -139 495 -441 454 -64 -9
-87 -8 -112 3 -43 18 -51 29 -77 116 -42 142 -115 247 -205 292 -50 26 -144
34 -217 19 -31 -7 -96 -32 -144 -56 -109 -55 -153 -59 -192 -16 -15 16 -44 51
-65 79 -86 115 -243 181 -363 153z m120 -222 c13 -6 48 -41 77 -76 93 -115
190 -174 284 -174 70 0 121 14 236 67 112 51 154 55 197 20 21 -18 32 -40 41
-83 34 -155 132 -281 247 -319 49 -15 84 -18 203 -16 162 2 184 -4 199 -60 4
-18 4 -59 -1 -93 -11 -76 -3 -197 16 -253 38 -109 114 -171 280 -228 75 -25
114 -44 127 -62 31 -39 26 -90 -19 -174 -120 -223 -89 -382 104 -539 46 -37
69 -64 80 -94 23 -60 7 -92 -80 -158 -194 -148 -227 -316 -104 -545 60 -113
49 -172 -40 -211 -27 -11 -56 -21 -63 -21 -29 -1 -152 -61 -193 -95 -66 -53
-104 -139 -111 -245 -3 -47 -2 -112 3 -145 11 -73 0 -120 -30 -137 -15 -9 -71
-13 -177 -14 -137 0 -162 -3 -212 -23 -107 -42 -187 -148 -224 -297 -21 -84
-56 -124 -106 -124 -19 0 -82 21 -144 49 -138 62 -205 76 -279 61 -70 -14
-152 -74 -230 -166 -64 -77 -87 -93 -128 -94 -47 0 -89 27 -142 92 -62 76
-148 141 -209 158 -28 8 -75 11 -121 8 -64 -4 -90 -12 -181 -56 -58 -29 -118
-52 -134 -52 -46 0 -85 42 -115 123 -69 185 -112 249 -192 290 -55 29 -143 40
-260 33 -91 -6 -117 -5 -142 8 -16 9 -33 22 -38 28 -4 7 -8 83 -8 168 -1 133
-4 162 -22 206 -43 110 -123 176 -265 220 -111 35 -127 44 -144 76 -22 43 -17
82 21 151 73 133 93 252 60 348 -22 61 -86 141 -161 202 -78 64 -106 120 -83
167 8 16 45 55 84 87 196 164 225 315 104 541 -44 82 -48 122 -19 169 15 26
31 36 77 48 143 40 230 90 283 162 55 75 64 112 64 286 l1 159 28 23 c26 23
32 24 180 22 130 -2 160 1 205 18 104 38 158 108 218 284 52 151 103 173 236
102 101 -55 176 -75 257 -69 102 8 169 49 275 168 32 36 68 70 79 77 28 16 79
16 111 2z"/>
<path d="M2330 4035 c-327 -55 -604 -198 -833 -431 -278 -283 -427 -646 -427
-1044 0 -706 486 -1307 1183 -1461 144 -32 398 -37 552 -11 313 54 589 197
811 422 208 210 340 453 407 748 18 82 21 128 21 302 0 174 -3 220 -21 302
-32 139 -66 238 -129 363 -210 424 -616 726 -1082 806 -133 22 -362 24 -482 4z
m500 -224 c249 -57 449 -168 631 -350 186 -185 300 -394 355 -651 26 -119 26
-381 0 -500 -55 -257 -169 -466 -355 -651 -185 -186 -394 -299 -651 -355 -126
-27 -392 -25 -516 4 -259 61 -452 167 -635 351 -186 185 -300 394 -355 651
-26 119 -26 381 0 500 56 259 167 463 355 651 147 147 287 237 470 303 76 27
215 61 286 69 87 10 330 -3 415 -22z"/>
<path d="M2753 2688 l-403 -402 -187 186 c-140 138 -196 187 -220 192 -71 16
-143 -56 -127 -127 5 -24 61 -87 228 -255 121 -123 233 -230 248 -238 15 -8
44 -14 65 -14 36 0 53 16 481 443 263 262 450 456 459 475 29 68 -23 142 -101
142 -40 0 -44 -4 -443 -402z"/>
</g>
</svg>
