<?xml version="1.0" standalone="no"?>
<!DOCTYPE svg PUBLIC "-//W3C//DTD SVG 20010904//EN"
 "http://www.w3.org/TR/2001/REC-SVG-20010904/DTD/svg10.dtd">
<svg version="1.0" xmlns="http://www.w3.org/2000/svg"
 width="512.000000pt" height="512.000000pt" viewBox="0 0 512.000000 512.000000"
 preserveAspectRatio="xMidYMid meet">

<g transform="translate(0.000000,512.000000) scale(0.100000,-0.100000)"
fill="#000000" stroke="none">
<path d="M1680 3321 c-50 -16 -89 -41 -124 -83 -143 -167 -26 -420 195 -420
234 0 344 295 167 446 -65 56 -163 79 -238 57z"/>
<path d="M3284 3314 c-177 -65 -226 -290 -92 -424 89 -90 237 -97 343 -16 39
30 83 111 91 168 13 96 -42 201 -132 254 -56 33 -149 41 -210 18z"/>
<path d="M2436 2980 c-82 -21 -126 -79 -126 -168 0 -34 7 -59 23 -83 28 -41
82 -79 113 -79 23 0 24 -2 24 -86 0 -100 -18 -144 -76 -183 -64 -44 -176 -39
-240 11 -31 25 -63 91 -64 131 0 40 -40 77 -85 77 -161 0 -77 -294 111 -386
131 -64 300 -43 413 51 l31 27 31 -27 c108 -91 273 -114 402 -57 62 27 143
105 174 167 16 30 28 73 31 111 4 57 2 65 -21 88 -51 51 -147 19 -147 -49 0
-31 -25 -92 -48 -119 -42 -47 -153 -70 -219 -45 -34 13 -80 55 -99 91 -9 17
-14 58 -14 113 0 83 1 85 24 85 31 0 85 38 114 80 20 29 23 45 20 95 -4 72
-30 114 -85 141 -44 21 -224 29 -287 14z"/>
<path d="M574 2760 c-30 -12 -54 -49 -54 -82 0 -52 34 -73 239 -147 107 -39
203 -71 213 -71 11 0 33 13 49 29 45 46 37 106 -19 135 -32 16 -389 146 -400
145 -4 0 -17 -4 -28 -9z"/>
<path d="M4320 2699 c-212 -76 -240 -94 -240 -154 0 -25 8 -40 31 -59 17 -14
38 -26 47 -26 35 0 407 145 429 167 42 41 25 105 -32 129 -19 8 -36 14 -37 14
-2 -1 -91 -32 -198 -71z"/>
<path d="M955 2140 c-71 -32 -155 -70 -186 -84 -99 -44 -124 -102 -69 -158 25
-25 37 -30 63 -25 44 7 377 155 404 179 55 51 12 150 -64 147 -10 0 -76 -27
-148 -59z"/>
<path d="M3990 2193 c-50 -19 -70 -74 -46 -121 12 -24 45 -42 199 -110 102
-45 196 -84 209 -87 57 -15 114 45 99 103 -10 37 -37 53 -225 138 -171 76
-208 88 -236 77z"/>
<path d="M1335 1780 c-11 -4 -89 -77 -172 -162 -132 -133 -153 -159 -153 -186
0 -46 38 -86 84 -86 34 0 48 12 196 159 149 148 160 162 160 196 0 29 -7 43
-31 63 -32 27 -50 31 -84 16z"/>
<path d="M3719 1775 c-14 -8 -32 -28 -39 -45 -11 -27 -11 -37 3 -64 17 -36
295 -306 327 -318 52 -19 119 44 105 101 -7 29 -274 304 -317 327 -33 17 -46
17 -79 -1z"/>
<path d="M1244 1364 c-32 -258 131 -512 424 -658 148 -74 306 -125 490 -156
152 -27 152 -27 115 13 -18 17 -45 59 -60 92 -25 53 -28 72 -28 155 0 86 3
101 32 162 17 36 29 69 25 72 -3 3 -16 6 -30 6 -50 0 -271 51 -390 89 -148 48
-357 147 -474 224 -47 32 -88 57 -91 57 -3 0 -9 -25 -13 -56z"/>
<path d="M3780 1369 c-189 -128 -484 -247 -734 -295 -72 -14 -141 -27 -153
-30 -22 -4 -22 -4 10 -72 29 -61 32 -76 32 -162 0 -83 -3 -102 -28 -155 -15
-33 -42 -75 -60 -92 -36 -38 -36 -38 93 -18 338 55 602 174 766 346 98 104
157 225 170 353 7 66 -2 176 -14 176 -4 -1 -41 -24 -82 -51z"/>
</g>
</svg>
